<?xml version="1.0" encoding="UTF-8"?>
<svg width="336px" height="194px" viewBox="0 0 336 194" version="1.1" xmlns="http://www.w3.org/2000/svg" xmlns:xlink="http://www.w3.org/1999/xlink">
    <!-- Generator: Sketch 63.1 (92452) - https://sketch.com -->
    <title>Ad</title>
    <desc>Created with Sketch.</desc>
    <g id="Adjacent-LandingPage" stroke="none" stroke-width="1" fill="none" fill-rule="evenodd">
        <g id="Artboard" transform="translate(-177.000000, -731.000000)">
            <g id="Group-2" transform="translate(177.000000, 717.000000)">
                <path d="M55.5078125,205.132812 L55.5078125,200.074219 C48.9453125,199.527344 44.4791667,198.707031 42.109375,197.613281 C38.28125,195.790365 36.3671875,192.509115 36.3671875,187.769531 C36.3671875,185.39974 37.0735677,182.186849 38.4863281,178.130859 C39.8990885,174.07487 44.2513021,162.886719 51.5429687,144.566406 L51.5429687,144.566406 L124.824219,144.566406 L136.445312,171.5 C138.085938,175.328125 139.361979,178.973958 140.273438,182.4375 C141.184896,185.901042 141.640625,188.316406 141.640625,189.683594 C141.640625,193.785156 140.455729,196.360026 138.085938,197.408203 C135.716146,198.45638 130.429688,199.345052 122.226562,200.074219 L122.226562,200.074219 L122.226562,205.132812 L193.457031,205.132812 L193.457031,200.074219 C186.894531,199.16276 182.223307,197.453776 179.443359,194.947266 C176.663411,192.440755 172.949219,185.901042 168.300781,175.328125 L168.300781,175.328125 L98.5742188,16.5976562 L93.1054688,16.5976562 L34.7265625,154 C25.9765625,174.598958 19.8014323,187.222656 16.2011719,191.871094 C12.6009115,196.519531 7.20052083,199.253906 0,200.074219 L0,200.074219 L0,205.132812 L55.5078125,205.132812 Z M120.859375,133.21875 L56.4648438,133.21875 L88.4570312,56.109375 L120.859375,133.21875 Z M294.21875,207.730469 L315.683594,199.664062 C328.352865,195.289062 334.960938,193.010417 335.507812,192.828125 L335.507812,192.828125 L335.507812,188.316406 C334.505208,188.498698 333.502604,188.61263 332.5,188.658203 C331.497396,188.703776 330.494792,188.726562 329.492188,188.726562 C323.203125,188.726562 319.329427,187.541667 317.871094,185.171875 C316.41276,182.802083 315.683594,178.654948 315.683594,172.730469 L315.683594,172.730469 L315.957031,61.03125 C315.957031,55.6536458 316.002604,50.2076823 316.09375,44.6933594 C316.184896,39.1790365 316.276042,33.8242188 316.367188,28.6289062 L316.367188,28.6289062 L316.640625,14.2734375 L315.820312,14 C312.447917,15.2760417 310.032552,16.1419271 308.574219,16.5976562 C305.47526,17.6914062 301.875,18.8307292 297.773438,20.015625 C293.671875,21.2005208 289.570312,22.3398438 285.46875,23.4335938 L285.46875,23.4335938 L274.257812,26.3046875 L274.257812,30.8164062 C277.083333,30.5429688 278.90625,30.3606771 279.726562,30.2695312 C280.546875,30.1783854 281.503906,30.1328125 282.597656,30.1328125 C287.246094,30.1328125 290.185547,31.1809896 291.416016,33.2773438 C292.646484,35.3736979 293.261719,39.2018229 293.261719,44.7617188 L293.261719,44.7617188 L293.261719,88.2382812 C289.889323,84.8658854 286.380208,82.2226562 282.734375,80.3085938 C277.174479,77.3919271 271.067708,75.9335938 264.414062,75.9335938 C247.734375,75.9335938 233.629557,83.0201823 222.099609,97.1933594 C210.569661,111.366536 204.804688,128.342448 204.804688,148.121094 C204.804688,163.889323 209.61263,177.766276 219.228516,189.751953 C228.844401,201.73763 241.39974,207.730469 256.894531,207.730469 C265.644531,207.730469 273.346354,205.679688 280,201.578125 C283.736979,199.208333 288.157552,195.24349 293.261719,189.683594 L293.261719,189.683594 L293.261719,206.5 L294.21875,207.730469 Z M269.472656,192.964844 C255.983073,192.964844 245.843099,187.222656 239.052734,175.738281 C232.26237,164.253906 228.867188,151.174479 228.867188,136.5 C228.867188,121.643229 232.057292,109.133464 238.4375,98.9707031 C244.817708,88.8079427 253.75,83.7265625 265.234375,83.7265625 C271.25,83.7265625 277.42513,86.1647135 283.759766,91.0410156 C290.094401,95.9173177 293.261719,104.279948 293.261719,116.128906 L293.261719,116.128906 L293.261719,174.78125 C293.261719,178.518229 291.074219,182.483073 286.699219,186.675781 C282.324219,190.86849 276.582031,192.964844 269.472656,192.964844 Z" id="Ad" fill="#232323" fill-rule="nonzero"></path>
                <rect id="Rectangle" x="0" y="0" width="336" height="208"></rect>
            </g>
        </g>
    </g>
</svg>