<?xml version="1.0" encoding="UTF-8"?>
<svg width="167.2px" height="194px" viewBox="0 0 218 253" version="1.1" xmlns="http://www.w3.org/2000/svg" xmlns:xlink="http://www.w3.org/1999/xlink">
    <title>ja</title>
    <g id="Adjacent-LandingPage" stroke="none" stroke-width="1" fill="none" fill-rule="evenodd">
        <g id="Artboard" transform="translate(-678.000000, -716.000000)" fill="#232323" fill-rule="nonzero">
            <path d="M739.113281,744.574219 C743.032552,744.574219 746.382161,743.184245 749.162109,740.404297 C751.942057,737.624349 753.332031,734.27474 753.332031,730.355469 C753.332031,726.436198 751.942057,723.063802 749.162109,720.238281 C746.382161,717.41276 743.032552,716 739.113281,716 C735.102865,716 731.730469,717.41276 728.996094,720.238281 C726.261719,723.063802 724.894531,726.436198 724.894531,730.355469 C724.894531,734.27474 726.261719,737.624349 728.996094,740.404297 C731.730469,743.184245 735.102865,744.574219 739.113281,744.574219 Z M703.839844,968.109375 C724.438802,968.109375 738.384115,959.997396 745.675781,943.773438 C749.686198,934.932292 751.691406,922.627604 751.691406,906.859375 L751.691406,906.859375 L751.691406,780.53125 C751.691406,779.802083 751.509115,779.164062 751.144531,778.617188 L751.144531,778.617188 L742.941406,781.488281 C738.839844,783.03776 734.533203,784.610026 730.021484,786.205078 C725.509766,787.80013 721.841146,789.053385 719.015625,789.964844 L719.015625,789.964844 L707.394531,793.792969 L707.394531,798.03125 C709.582031,797.393229 711.701172,796.846354 713.751953,796.390625 C715.802734,795.934896 717.466146,795.707031 718.742188,795.707031 C723.026042,795.707031 725.760417,797.188151 726.945312,800.150391 C728.130208,803.11263 728.722656,807.692708 728.722656,813.890625 L728.722656,813.890625 L728.722068,906.387969 C728.716484,918.134318 728.671107,925.58312 728.585938,928.734375 C728.494792,938.122396 727.856771,944.821615 726.671875,948.832031 C724.666667,955.485677 720.792969,958.8125 715.050781,958.8125 C711.58724,958.8125 707.599609,955.941406 703.087891,950.199219 C698.576172,944.457031 693.950521,941.585938 689.210938,941.585938 C685.929688,941.585938 683.240885,942.748047 681.144531,945.072266 C679.048177,947.396484 678,950.0625 678,953.070312 C678,957.627604 680.620443,961.273438 685.861328,964.007812 C691.102214,966.742188 697.095052,968.109375 703.839844,968.109375 Z M811.164062,908.910156 C818.638021,908.910156 826.522135,906.449219 834.816406,901.527344 C839.738281,898.610677 845.66276,894.144531 852.589844,888.128906 C852.863281,893.688802 854.389974,898.473958 857.169922,902.484375 C859.94987,906.494792 864.438802,908.5 870.636719,908.5 C875.923177,908.5 881.11849,906.768229 886.222656,903.304688 C889.595052,901.026042 892.739583,898.109375 895.65625,894.554688 L895.65625,894.554688 L895.65625,887.445312 C892.283854,889.90625 889.914062,891.455729 888.546875,892.09375 C887.179688,892.731771 885.447917,893.050781 883.351562,893.050781 C879.614583,893.050781 877.153646,891.273438 875.96875,887.71875 C875.239583,885.713542 874.875,882.067708 874.875,876.78125 L874.875,876.78125 L874.875,821.957031 C874.875,809.925781 873.188802,800.765625 869.816406,794.476562 C863.527344,782.992188 851.541667,777.25 833.859375,777.25 C818.638021,777.25 807.085286,780.736328 799.201172,787.708984 C791.317057,794.681641 787.375,801.358073 787.375,807.738281 C787.375,811.019531 788.46875,814.004557 790.65625,816.693359 C792.84375,819.382161 795.988281,820.726562 800.089844,820.726562 C802.733073,820.726562 805.011719,820.134115 806.925781,818.949219 C810.298177,816.94401 811.984375,813.389323 811.984375,808.285156 C811.984375,807.55599 811.75651,805.892578 811.300781,803.294922 C810.845052,800.697266 810.617188,798.851562 810.617188,797.757812 C810.617188,793.473958 812.713542,790.101562 816.90625,787.640625 C821.098958,785.270833 825.519531,784.085938 830.167969,784.085938 C839.920573,784.085938 846.346354,787.139323 849.445312,793.246094 C851.268229,796.891927 852.179688,803.363281 852.179688,812.660156 L852.179688,812.660156 L852.179688,824.28125 C827.114583,833.669271 810.389323,841.097656 802.003906,846.566406 C788.78776,855.407552 782.179688,866.436198 782.179688,879.652344 C782.179688,888.128906 785.050781,895.124349 790.792969,900.638672 C796.535156,906.152995 803.325521,908.910156 811.164062,908.910156 Z M826.613281,892.367188 C822.238281,892.367188 818.273438,891.091146 814.71875,888.539062 C809.25,884.619792 806.515625,878.513021 806.515625,870.21875 C806.515625,859.919271 813.078125,850.713542 826.203125,842.601562 C833.039062,838.408854 841.697917,834.580729 852.179688,831.117188 L852.179688,831.117188 L852.179688,874.457031 C852.179688,879.652344 849.422526,883.936198 843.908203,887.308594 C838.39388,890.68099 832.628906,892.367188 826.613281,892.367188 Z" id="ja"></path>
        </g>
    </g>
</svg>