<?xml version="1.0" encoding="UTF-8"?>
<svg width="538.76px" height="194px" viewBox="0 0 461 166" version="1.1" xmlns="http://www.w3.org/2000/svg" xmlns:xlink="http://www.w3.org/1999/xlink">
    <title>cent</title>
    <g id="Adjacent-LandingPage" stroke="none" stroke-width="1" fill="none" fill-rule="evenodd">
        <g id="Artboard" transform="translate(-174.000000, -1095.000000)">
            <g id="Group" transform="translate(174.000000, 1052.000000)">
                <path d="M54.140625,207.609375 C68.6328125,207.609375 81.3932292,201.502604 92.421875,189.289062 C98.1640625,182.908854 103.632812,174.25 108.828125,163.3125 L108.828125,163.3125 L105,160.988281 C99.7135417,168.735677 94.9739583,174.386719 90.78125,177.941406 C83.3984375,184.139323 74.9674479,187.238281 65.4882812,187.238281 C52.0898438,187.238281 41.4485677,181.769531 33.5644531,170.832031 C25.6803385,159.894531 21.7382812,147.544271 21.7382812,133.78125 C21.7382812,118.742188 25.3157552,106.688151 32.4707031,97.6191406 C39.625651,88.5501302 48.3984375,84.015625 58.7890625,84.015625 C63.7109375,84.015625 67.6757812,84.9726562 70.6835938,86.8867188 C73.6002604,88.8919271 75.6510417,92.3098958 76.8359375,97.140625 L76.8359375,97.140625 L78.4765625,103.703125 C79.5703125,107.895833 81.3248698,111.085938 83.7402344,113.273438 C86.155599,115.460938 88.9583333,116.554688 92.1484375,116.554688 C96.5234375,116.554688 99.7591146,115.255859 101.855469,112.658203 C103.951823,110.060547 105,107.257812 105,104.25 C105,97.2317708 100.875651,90.7832031 92.6269531,84.9042969 C84.3782552,79.0253906 74.5572917,76.0859375 63.1640625,76.0859375 C44.9348958,76.0859375 29.8502604,82.8763021 17.9101562,96.4570312 C5.97005208,110.03776 0,126.261719 0,145.128906 C0,164.360677 5.46875,179.582031 16.40625,190.792969 C27.34375,202.003906 39.921875,207.609375 54.140625,207.609375 Z M177.050781,208.292969 C191.907552,208.292969 204.462891,203.371094 214.716797,193.527344 C224.970703,183.683594 231.966146,172.973958 235.703125,161.398438 L235.703125,161.398438 L230.917969,159.757812 C225.358073,168.963542 219.296875,176.072917 212.734375,181.085938 C206.171875,186.098958 198.105469,188.605469 188.535156,188.605469 C176.686198,188.605469 166.432292,183.77474 157.773438,174.113281 C149.114583,164.451823 144.329427,149.048177 143.417969,127.902344 L143.417969,127.902344 L230.234375,127.902344 C230.234375,111.58724 225.403646,98.9863281 215.742188,90.0996094 C206.080729,81.2128906 194.824219,76.7695312 181.972656,76.7695312 C164.563802,76.7695312 150.436198,83.4231771 139.589844,96.7304688 C128.74349,110.03776 123.320312,125.851562 123.320312,144.171875 C123.320312,161.033854 127.991536,175.936198 137.333984,188.878906 C146.676432,201.821615 159.915365,208.292969 177.050781,208.292969 Z M201.660156,119.152344 L143.964844,119.152344 C145.240885,111.678385 147.33724,105.480469 150.253906,100.558594 C155.722656,91.3528646 163.652344,86.75 174.042969,86.75 C184.52474,86.75 191.998698,90.7604167 196.464844,98.78125 C198.925781,103.247396 200.657552,110.03776 201.660156,119.152344 L201.660156,119.152344 Z M306.933594,205.011719 L306.933594,201.183594 C300.644531,201.001302 296.041667,199.79362 293.125,197.560547 C290.208333,195.327474 288.75,190.929688 288.75,184.367188 L288.75,184.367188 L288.75,107.804688 C293.671875,102.973958 297.682292,99.5104167 300.78125,97.4140625 C306.341146,93.7682292 311.809896,91.9453125 317.1875,91.9453125 C325.026042,91.9453125 330.403646,94.5201823 333.320312,99.6699219 C336.236979,104.819661 337.695312,111.313802 337.695312,119.152344 L337.695312,119.152344 L337.695312,177.53125 C337.695312,186.828125 336.373698,192.866536 333.730469,195.646484 C331.08724,198.426432 326.438802,200.272135 319.785156,201.183594 L319.785156,201.183594 L319.785156,205.011719 L378.164062,205.011719 L378.164062,201.183594 C371.966146,201.092448 367.545573,199.588542 364.902344,196.671875 C362.259115,193.755208 360.9375,189.015625 360.9375,182.453125 L360.9375,182.453125 L360.9375,118.605469 C360.9375,100.832031 356.015625,88.4817708 346.171875,81.5546875 C341.067708,78 335.416667,76.2226562 329.21875,76.2226562 C321.5625,76.2226562 314.179688,78.4557292 307.070312,82.921875 C302.330729,85.8385417 295.768229,91.2161458 287.382812,99.0546875 L287.382812,99.0546875 L287.382812,78.9570312 C287.382812,78.1367188 287.314453,77.4986979 287.177734,77.0429688 C287.041016,76.5872396 286.653646,76.359375 286.015625,76.359375 L286.015625,76.359375 L273.164062,80.5976562 C259.21875,85.1549479 250.377604,87.9804688 246.640625,89.0742188 L246.640625,89.0742188 L246.640625,93.859375 C247.916667,93.6770833 248.98763,93.5403646 249.853516,93.4492188 C250.719401,93.3580729 251.5625,93.3125 252.382812,93.3125 C257.760417,93.3125 261.315104,95.0442708 263.046875,98.5078125 C264.140625,100.877604 264.6875,104.979167 264.6875,110.8125 L264.6875,110.8125 L264.6875,180.128906 C264.6875,188.514323 263.388672,193.914714 260.791016,196.330078 C258.193359,198.745443 253.658854,200.363281 247.1875,201.183594 L247.1875,201.183594 L247.1875,205.011719 L306.933594,205.011719 Z M426.835938,207.609375 C431.757812,207.609375 436.861979,206.28776 442.148438,203.644531 C447.434896,201.001302 452.447917,196.489583 457.1875,190.109375 L457.1875,190.109375 L460.195312,186.007812 L456.640625,183 C453.541667,186.372396 450.784505,188.833333 448.369141,190.382812 C445.953776,191.932292 443.105469,192.707031 439.824219,192.707031 C433.44401,192.707031 429.160156,189.5625 426.972656,183.273438 C425.78776,179.71875 425.195312,174.477865 425.195312,167.550781 L425.195312,167.550781 L425.46875,88.8007812 L453.359375,88.8007812 L453.359375,78.9570312 L425.742188,78.9570312 L425.742188,45.3242188 C425.742188,44.1393229 425.628255,43.4557292 425.400391,43.2734375 C425.172526,43.0911458 424.466146,43 423.28125,43 C412.981771,56.8541667 406.442057,65.3990885 403.662109,68.6347656 C400.882161,71.8704427 396.347656,76.0859375 390.058594,81.28125 C387.871094,83.1041667 386.572266,84.266276 386.162109,84.7675781 C385.751953,85.2688802 385.546875,85.9752604 385.546875,86.8867188 C385.546875,87.3424479 385.660807,87.7070312 385.888672,87.9804688 C386.116536,88.2539062 386.458333,88.5273438 386.914062,88.8007812 L386.914062,88.8007812 L401.816406,88.8007812 L401.816406,171.652344 C401.816406,180.858073 402.864583,188.058594 404.960938,193.253906 C408.789062,202.824219 416.080729,207.609375 426.835938,207.609375 Z" id="cent" fill="#232323" fill-rule="nonzero"></path>
                <rect id="Rectangle" x="0" y="0" width="460" height="208"></rect>
            </g>
        </g>
    </g>
</svg>