<?xml version="1.0" encoding="UTF-8"?>
<svg width="40px" height="33px" viewBox="0 0 40 33" version="1.1" xmlns="http://www.w3.org/2000/svg" xmlns:xlink="http://www.w3.org/1999/xlink">
    <title>twitter</title>
    <g id="Adjacent-LandingPage" stroke="none" stroke-width="1" fill="none" fill-rule="evenodd">
        <g id="V1_desktop_hoverandclickedstates" transform="translate(-412.000000, -3443.000000)">
            <g id="Group-5" transform="translate(-20.000000, 2987.000000)">
                <g id="twitter-fill" transform="translate(432.000000, 456.000000)" fill="#232323" fill-rule="nonzero">
                    <path d="M14.9226767,33 C13.1929536,33 11.4125716,32.8588019 9.62150863,32.5757906 C6.46693066,32.0768292 3.27359565,30.4135224 2.36997708,29.915484 L0,28.609325 L2.56589839,27.7587529 C5.37074762,26.8291222 7.07697242,26.2523328 9.18907787,25.3491575 C7.0742258,24.3167813 5.4442944,22.4596732 4.65969344,20.0589987 L4.06277416,18.232345 L4.55227238,18.3077121 C4.08810358,17.8361291 3.72159028,17.3574708 3.43747378,16.922187 C2.42704445,15.3751609 1.89207541,13.4848297 2.00590509,11.8648974 L2.11820892,10.2704977 L3.06516216,10.6402581 C2.66569013,9.87981893 2.37699601,9.06769943 2.20731957,8.21651211 C1.7938096,6.14068535 2.13987625,3.93535024 3.18204362,2.00687405 L4.0069274,0.480458481 L5.11012945,1.81614901 C8.59917752,6.04101622 13.0183944,8.54720465 18.2634105,9.28088078 C18.0491787,7.79230269 18.2097,6.35571247 18.7410069,5.06801089 C19.3595936,3.56866598 20.460049,2.2972683 21.9224402,1.39101672 C23.5465733,0.384788401 25.5161628,-0.102790983 27.4683573,0.0181041391 C29.5395696,0.146382087 31.4200484,0.928662374 32.9135673,2.28188721 C33.6429318,2.09085457 34.1803423,1.88690189 34.9066551,1.61127345 C35.3436635,1.4454657 35.8392652,1.25720163 36.4593776,1.04186691 L38.7445165,0.248204666 L37.2543545,4.53828745 C37.3526204,4.52998174 37.4539379,4.52290644 37.5598331,4.5182921 L40,4.40693333 L38.5577503,6.39385747 C38.4750483,6.50767729 38.4539913,6.53997748 38.4246947,6.58458251 C38.3084235,6.76115702 38.1637714,6.98079839 36.1841111,9.64541175 C35.6885095,10.3126417 35.4410138,11.1816711 35.487095,12.0928446 C35.6625697,15.5554269 35.2411252,18.6882394 34.2337476,21.4039178 C33.2809961,23.9731686 31.8045669,26.1775809 29.8459637,27.9559381 C27.4222761,30.1560436 24.3317846,31.6624638 20.6599376,32.4327468 C18.8588039,32.8105054 16.9246146,33 14.9226767,33 Z" id="Path"></path>
                </g>
            </g>
        </g>
    </g>
</svg>