<?xml version="1.0" encoding="UTF-8"?>
<svg width="37px" height="37px" viewBox="0 0 37 37" version="1.1" xmlns="http://www.w3.org/2000/svg" xmlns:xlink="http://www.w3.org/1999/xlink">
    <title>instagram</title>
    <g id="icon-ig" stroke="none" stroke-width="1" fill="none" fill-rule="evenodd">
        <g id="V1_desktop_hoverandclickedstates" transform="translate(-355.000000, -3441.000000)">
            <g id="Group-5" transform="translate(-20.000000, 2987.000000)">
                <g id="instagram-fill" transform="translate(375.000000, 454.000000)" fill="#232323" fill-rule="nonzero">
                    <path d="M31.1289342,0 L5.34249442,0 C2.3968879,0 0,2.3968879 0,5.34249442 L0,31.1289342 C0,34.0745407 2.3968879,36.4714286 5.34249442,36.4714286 L31.1289342,36.4714286 C34.0745407,36.4714286 36.4714286,34.0745407 36.4714286,31.1289342 L36.4714286,5.34249442 C36.4714286,2.3968879 34.0745407,0 31.1289342,0 Z M18.3069475,27.780971 C13.0042436,27.780971 8.69045759,23.467185 8.69045759,18.164481 C8.69045759,12.8617771 13.0042436,8.54799107 18.3069475,8.54799107 C23.6096515,8.54799107 27.9234375,12.8617771 27.9234375,18.164481 C27.9234375,23.467185 23.6096515,27.780971 18.3069475,27.780971 Z M28.9919364,10.6849888 C27.2244611,10.6849888 25.7864397,9.24696742 25.7864397,7.47949219 C25.7864397,5.71201695 27.2244611,4.27399554 28.9919364,4.27399554 C30.7594116,4.27399554 32.197433,5.71201695 32.197433,7.47949219 C32.197433,9.24696742 30.7594116,10.6849888 28.9919364,10.6849888 Z" id="Shape"></path>
                    <path d="M28.9919364,6.4109933 C28.4023142,6.4109933 27.9234375,6.88987 27.9234375,7.47949219 C27.9234375,8.06911438 28.4023142,8.54799107 28.9919364,8.54799107 C29.5815586,8.54799107 30.0604353,8.06911438 30.0604353,7.47949219 C30.0604353,6.88987 29.5815586,6.4109933 28.9919364,6.4109933 Z" id="Path"></path>
                    <path d="M18.3069475,10.6849888 C14.1832097,10.6849888 10.8274554,14.0407431 10.8274554,18.164481 C10.8274554,22.2882189 14.1832097,25.6439732 18.3069475,25.6439732 C22.4306854,25.6439732 25.7864397,22.2882189 25.7864397,18.164481 C25.7864397,14.0407431 22.4306854,10.6849888 18.3069475,10.6849888 Z" id="Path"></path>
                </g>
            </g>
        </g>
    </g>
</svg>