<?xml version="1.0" encoding="UTF-8"?>
<svg width="14px" height="21px" viewBox="0 0 14 21" version="1.1" xmlns="http://www.w3.org/2000/svg" xmlns:xlink="http://www.w3.org/1999/xlink">
    <title>arrow</title>
    <g id="Adjacent-LandingPage" stroke="none" stroke-width="1" fill="none" fill-rule="evenodd">
        <g id="V1_desktop_hoverandclickedstates" transform="translate(-592.000000, -3007.000000)" fill="#000000" fill-rule="nonzero">
            <g id="Group-5" transform="translate(-20.000000, 2987.000000)">
                <g id="Group-4">
                    <g id="Group" transform="translate(28.000000, 0.000000)">
                        <g id="Group-7" transform="translate(406.000000, 18.000000)">
                            <g id="arrow" transform="translate(184.767387, 12.500000) rotate(270.000000) translate(-184.767387, -12.500000) translate(174.767387, 6.000000)">
                                <path d="M19.8779151,6.21277959 L13.6279197,0.119028105 C13.4651464,-0.0396760351 13.2014747,-0.0396760351 13.0387404,0.119028105 C12.8759671,0.277732246 12.8759671,0.534812386 13.0387404,0.693478441 L18.5774864,6.09376101 L0.416679382,6.09376101 C0.186367051,6.09376101 1.13686838e-13,6.27546906 1.13686838e-13,6.5000238 C1.13686838e-13,6.72457855 0.186367051,6.9062866 0.416679382,6.9062866 L18.5774864,6.9062866 L13.0387404,12.3065311 C12.8759671,12.4652352 12.8759671,12.7223154 13.0387404,12.8809814 C13.1201076,12.9603144 13.2267481,13 13.3333496,13 C13.4399511,13 13.5465526,12.9603144 13.6279588,12.8809814 L19.8779542,6.78722993 C20.0406884,6.62856387 20.0406884,6.37148373 19.8779151,6.21277959 Z" id="Path"></path>
                            </g>
                        </g>
                    </g>
                </g>
            </g>
        </g>
    </g>
</svg>