<?xml version="1.0" encoding="UTF-8"?>
<svg width="80px" height="122px" viewBox="0 0 80 122" version="1.1" xmlns="http://www.w3.org/2000/svg" xmlns:xlink="http://www.w3.org/1999/xlink">
    <!-- Generator: Sketch 60 (88103) - https://sketch.com -->
    <title>Artboard</title>
    <desc>Created with Sketch.</desc>
    <g id="Artboard" stroke="none" stroke-width="1" fill="none" fill-rule="evenodd">
        <path d="M41.6674584,121 C52.0427553,121 60.8586698,116.984314 68.1152019,108.952941 C75.371734,100.921569 79,91.1333333 79,79.5882353 C79,70.1137255 76.4216152,62.4431373 71.2648456,56.5764706 C66.108076,50.7098039 59.3301663,47.7764706 50.9311164,47.7764706 C40.5558195,47.7764706 29.7173397,52.545098 18.415677,62.0823529 C18.415677,44.7647059 20.716152,31.0705882 25.3171021,21 C29.9180523,10.9294118 36.5106888,5.89411765 45.0950119,5.89411765 C49.5415677,5.89411765 53.6021378,7.85490196 57.2767221,11.7764706 C60.9513064,15.6980392 62.7885986,22.2078431 62.7885986,31.3058824 L62.7885986,31.3058824 L76.5914489,20.9529412 C74.9239905,15.1176471 71.3574822,10.3333333 65.891924,6.6 C60.4263658,2.86666667 53.8954869,1 46.2992874,1 C34.0095012,1 23.3871734,7.03921569 14.432304,19.1176471 C5.47743468,31.1960784 1,46.5215686 1,65.0941176 C1,81.4078431 5.04513064,94.8039216 13.1353919,105.282353 C21.2256532,115.760784 30.736342,121 41.6674584,121 Z" id="06" stroke="#0C06D4" stroke-width="0.8" fill-rule="nonzero"></path>
    </g>
</svg>