<?xml version="1.0" encoding="UTF-8"?>
<svg width="80px" height="122px" viewBox="0 0 80 122" version="1.1" xmlns="http://www.w3.org/2000/svg" xmlns:xlink="http://www.w3.org/1999/xlink">
    <!-- Generator: Sketch 60 (88103) - https://sketch.com -->
    <title>Artboard Copy</title>
    <desc>Created with Sketch.</desc>
    <g id="Artboard-Copy" stroke="none" stroke-width="1" fill="none" fill-rule="evenodd">
        <path d="M26.7590361,121 C40.3092369,121 51.5120482,116.857243 60.3674699,108.571728 C69.2228916,100.286214 73.6506024,89.9573128 73.6506024,77.5850245 C73.6506024,72.0426872 72.6104418,66.7942617 70.5301205,61.8397481 C68.4497992,56.8852344 65.3855422,52.4205738 61.3373494,48.4457663 C56.6144578,43.8551435 50.7389558,40.3841847 43.7108434,38.0328901 C39.437751,36.63331 32.6907631,35.1497551 23.4698795,33.5822253 L30.6385542,18.886634 L63.2771084,18.886634 C64.4578313,18.886634 65.5542169,18.816655 66.5662651,18.676697 C67.5783133,18.536739 68.1967871,18.2148355 68.4216867,17.7109867 L75,2.17564731 L73.6506024,1 C72.0763052,2.67949615 70.7971888,3.82715185 69.813253,4.44296711 C68.8293173,5.05878237 67.437751,5.36668999 65.6385542,5.36668999 L29.4578313,5.36668999 L11.0722892,45.506648 C10.9598394,45.786564 10.8614458,46.0804759 10.7771084,46.3883835 C10.6927711,46.6962911 10.5943775,47.0741777 10.4819277,47.5220434 C10.9317269,48.0258922 11.311245,48.3198041 11.6204819,48.4037789 C11.9297189,48.4877537 12.7028112,48.5297411 13.939759,48.5297411 C21.3614458,48.5297411 29.373494,50.293212 37.9759036,53.820154 C53.4939759,60.2022393 61.253012,70.6431071 61.253012,85.1427572 C61.253012,93.4282715 58.8353414,100.412176 54,106.094472 C49.1646586,111.776767 43.5140562,114.617915 37.0481928,114.617915 C34.2369478,114.617915 30.2309237,112.812456 25.0301205,109.20154 C19.8293173,105.590623 15.626506,103.785164 12.4216867,103.785164 C9.89156627,103.785164 8.02208835,104.414976 6.81325301,105.674598 C5.60441767,106.93422 5,108.403779 5,110.083275 C5,114.561931 7.81124498,117.668999 13.4337349,119.404479 C16.8072289,120.46816 21.248996,121 26.7590361,121 Z" id="05" stroke="#0C06D4" fill-rule="nonzero"></path>
    </g>
</svg>