<?xml version="1.0" encoding="utf-8"?>
<!-- Generator: Adobe Illustrator 24.1.2, SVG Export Plug-In . SVG Version: 6.00 Build 0)  -->
<svg version="1.1" id="Layer_1" xmlns="http://www.w3.org/2000/svg" xmlns:xlink="http://www.w3.org/1999/xlink" x="0px" y="0px"
	 viewBox="0 0 304 109" style="enable-background:new 0 0 304 109;" xml:space="preserve">
<style type="text/css">
	.st0{clip-path:url(#SVGID_2_);}
	.st1{clip-path:url(#SVGID_2_);fill:none;stroke:#000000;stroke-linecap:square;stroke-miterlimit:10;}
	.st2{clip-path:url(#SVGID_2_);fill:none;stroke:#000000;stroke-width:4;stroke-miterlimit:10;}
	.st3{clip-path:url(#SVGID_6_);}
	.st4{opacity:0.6056;clip-path:url(#SVGID_8_);fill:#E9E9E9;}
	.st5{clip-path:url(#SVGID_10_);}
	.st6{clip-path:url(#SVGID_12_);fill:none;stroke:#979797;stroke-width:2;stroke-miterlimit:10;}
	.st7{clip-path:url(#SVGID_14_);fill:none;stroke:#000000;stroke-width:4;stroke-miterlimit:10;}
	.st8{clip-path:url(#SVGID_16_);}
	.st9{clip-path:url(#SVGID_18_);enable-background:new    ;}
	.st10{clip-path:url(#SVGID_20_);}
	.st11{clip-path:url(#SVGID_22_);}
	.st12{clip-path:url(#SVGID_26_);fill:none;stroke:#000000;stroke-width:4;stroke-miterlimit:10;}
	.st13{clip-path:url(#SVGID_26_);fill:none;stroke:#000000;stroke-linecap:square;stroke-miterlimit:10;}
	.st14{clip-path:url(#SVGID_32_);}
	.st15{clip-path:url(#SVGID_32_);fill:none;stroke:#000000;stroke-linecap:square;stroke-miterlimit:10;}
	.st16{clip-path:url(#SVGID_32_);fill:none;stroke:#000000;stroke-width:4;stroke-miterlimit:10;}
</style>
<path d="M29.4,41.3L47,79.5h-6.4l-5.7-12.5h-16l-5.9,12.5H9.7l18-38.2H29.4z M19.9,64.7h13.8l-6.8-14.8L19.9,64.7z"/>
<path d="M76.6,65.6c-0.7,0.5-1.4,1-2.1,1.4c-0.8,0.4-1.6,0.8-2.4,1.1c-0.8,0.3-1.7,0.5-2.5,0.7C68.6,68.9,67.8,69,67,69
	c-1.7,0-3.3-0.4-4.8-1.2c-1.5-0.8-2.8-1.9-3.9-3.2c-1.1-1.3-2-2.9-2.6-4.7c-0.6-1.8-1-3.7-1-5.6c0-2,0.4-3.9,1.2-5.7
	c0.8-1.8,1.9-3.5,3.3-4.9c1.4-1.4,3-2.6,4.8-3.5c1.8-0.9,3.8-1.3,5.9-1.3c1.4,0,2.6,0.2,3.7,0.7c1,0.5,2,1.1,2.9,1.9V26.4l4-1.6h1.7
	v43.6h-5.7V65.6z M76.6,48.7c0-1.1-0.2-2.2-0.6-3.1c-0.4-0.9-1-1.7-1.6-2.4c-0.7-0.7-1.4-1.2-2.3-1.6c-0.9-0.4-1.7-0.6-2.6-0.6
	c-1.1,0-2.2,0.3-3.2,0.8c-1,0.6-1.9,1.4-2.6,2.4c-0.7,1-1.3,2.2-1.8,3.7c-0.4,1.4-0.6,3-0.6,4.7c0,1.8,0.2,3.6,0.7,5.2
	c0.5,1.6,1.1,3,1.9,4.2c0.8,1.2,1.8,2.1,2.9,2.8c1.1,0.7,2.3,1,3.5,1c0.6,0,1.2-0.1,1.8-0.2c0.6-0.2,1.2-0.4,1.7-0.6
	c0.5-0.3,1.1-0.6,1.5-0.9c0.5-0.4,0.9-0.7,1.3-1.1V48.7z"/>
<path d="M95.8,65.2c0.4,0,0.8,0.1,1.2,0.2c0.4,0.2,0.7,0.4,1,0.6c0.3,0.3,0.5,0.6,0.7,0.9c0.2,0.4,0.2,0.7,0.2,1.1
	c0,0.4-0.1,0.8-0.2,1.2c-0.2,0.4-0.4,0.7-0.7,0.9c-0.3,0.3-0.6,0.5-1,0.6c-0.4,0.2-0.8,0.2-1.2,0.2c-0.4,0-0.8-0.1-1.2-0.2
	c-0.4-0.2-0.7-0.4-1-0.6c-0.3-0.3-0.5-0.6-0.7-0.9c-0.2-0.4-0.2-0.8-0.2-1.2c0-0.4,0.1-0.8,0.2-1.1c0.2-0.4,0.4-0.7,0.7-0.9
	c0.3-0.3,0.6-0.5,1-0.6C95,65.2,95.4,65.2,95.8,65.2z"/>
<path d="M101.3,87c0.3,0.5,0.6,1,1,1.4c0.4,0.5,0.8,0.8,1.3,1.2c0.5,0.3,1,0.6,1.6,0.8c0.6,0.2,1.2,0.3,1.9,0.3
	c0.5,0,0.9-0.1,1.2-0.2c0.4-0.2,0.7-0.4,0.9-0.8c0.3-0.4,0.5-0.9,0.6-1.5c0.1-0.6,0.2-1.4,0.2-2.3V51.8l4.1-1.6h1.6v29.4
	c0,2.9-0.3,5.2-0.8,6.9c-0.5,1.7-1.3,3.1-2.2,4c-0.9,0.9-2,1.6-3.3,1.9c-1.3,0.3-2.7,0.5-4.2,0.5c-1.4,0-2.8-0.3-4.1-0.9
	c-1.3-0.6-2.5-1.4-3.4-2.3L101.3,87z"/>
<path d="M143.7,79.5c-0.8-0.4-1.4-0.9-1.9-1.6c-0.5-0.7-0.8-1.5-0.8-2.4c-0.7,0.5-1.3,1-2,1.6c-0.6,0.5-1.4,1-2.1,1.5
	c-0.8,0.4-1.6,0.8-2.5,1.1c-0.9,0.3-2,0.4-3.2,0.4c-1.1,0-2.1-0.2-3.1-0.5c-0.9-0.4-1.7-0.9-2.3-1.5c-0.6-0.6-1.1-1.4-1.5-2.3
	c-0.3-0.9-0.5-1.8-0.5-2.8c0-1.2,0.2-2.4,0.7-3.4c0.5-1,1.2-1.9,2-2.7c0.9-0.8,1.8-1.5,3-2.1c1.1-0.6,2.3-1.2,3.6-1.6
	c1.3-0.5,2.6-0.9,3.9-1.3c1.4-0.4,2.7-0.7,3.9-1v-1.8c0-1.3-0.1-2.4-0.3-3.3c-0.2-0.9-0.5-1.6-0.9-2.2c-0.4-0.6-0.9-0.9-1.5-1.2
	c-0.6-0.2-1.3-0.4-2.2-0.4c-0.8,0-1.6,0.2-2.2,0.5c-0.7,0.3-1.3,0.7-1.8,1.3c-0.5,0.5-0.9,1.2-1.3,1.9c-0.3,0.7-0.6,1.5-0.7,2.3H125
	c0.1-1.2,0.6-2.4,1.3-3.3c0.7-1,1.6-1.8,2.7-2.5c1.1-0.7,2.3-1.2,3.7-1.5c1.4-0.4,2.8-0.5,4.2-0.5c1.9,0,3.5,0.2,4.7,0.6
	c1.3,0.4,2.3,0.9,3.1,1.5c0.8,0.7,1.3,1.5,1.7,2.4c0.3,0.9,0.5,2,0.5,3.1v17.8c0,0.9,0.3,1.7,0.8,2.4c0.5,0.7,1.2,1.2,1.9,1.6H143.7
	z M141.1,62.7c-0.8,0.3-1.7,0.6-2.6,0.9c-0.9,0.3-1.7,0.7-2.6,1.1c-0.8,0.4-1.7,0.9-2.4,1.4c-0.8,0.5-1.4,1-2,1.6
	c-0.6,0.6-1,1.2-1.4,1.8s-0.5,1.3-0.5,1.9c0,0.7,0.1,1.4,0.4,2c0.3,0.6,0.6,1.2,1,1.7c0.4,0.5,0.9,0.9,1.5,1.1
	c0.6,0.3,1.1,0.4,1.7,0.4c0.6,0,1.3-0.1,1.8-0.3c0.6-0.2,1.1-0.4,1.7-0.7c0.5-0.3,1.1-0.6,1.6-1c0.5-0.4,1.1-0.8,1.7-1.2V62.7z"/>
<path d="M164.1,65.2c0.4,0,0.8,0.1,1.2,0.2c0.4,0.2,0.7,0.4,1,0.6c0.3,0.3,0.5,0.6,0.7,0.9c0.2,0.4,0.2,0.7,0.2,1.1
	c0,0.4-0.1,0.8-0.2,1.2c-0.2,0.4-0.4,0.7-0.7,0.9c-0.3,0.3-0.6,0.5-1,0.6c-0.4,0.2-0.8,0.2-1.2,0.2c-0.4,0-0.8-0.1-1.2-0.2
	c-0.4-0.2-0.7-0.4-1-0.6c-0.3-0.3-0.5-0.6-0.7-0.9c-0.2-0.4-0.2-0.8-0.2-1.2c0-0.4,0.1-0.8,0.2-1.1c0.2-0.4,0.4-0.7,0.7-0.9
	c0.3-0.3,0.6-0.5,1-0.6C163.3,65.2,163.7,65.2,164.1,65.2z"/>
<path d="M196.6,58.8c-0.2-0.8-0.5-1.5-0.8-2.3c-0.4-0.8-0.8-1.5-1.4-2.1c-0.6-0.6-1.2-1.1-2-1.5c-0.8-0.4-1.6-0.6-2.7-0.6
	c-1.3,0-2.5,0.3-3.5,0.8c-1,0.5-1.9,1.2-2.6,2.1c-0.7,0.9-1.3,2-1.6,3.2c-0.4,1.2-0.6,2.5-0.6,3.8c0,1.8,0.2,3.6,0.7,5.2
	c0.5,1.6,1.2,3.1,2,4.3c0.9,1.2,1.9,2.2,3.2,2.9c1.2,0.7,2.6,1.1,4.1,1.1c1.3,0,2.5-0.2,3.5-0.6c1-0.4,1.8-1,2.6-1.7
	c0.7-0.7,1.4-1.5,1.9-2.5c0.5-0.9,1-1.9,1.4-3l1.7,0.7c-0.5,1.8-1.1,3.4-2,4.9c-0.8,1.4-1.8,2.6-2.9,3.6c-1.1,1-2.4,1.7-3.8,2.3
	c-1.4,0.5-2.9,0.8-4.6,0.8c-1.9,0-3.7-0.4-5.3-1.1c-1.7-0.7-3.1-1.8-4.3-3.1c-1.2-1.3-2.2-2.8-2.9-4.5c-0.7-1.7-1.1-3.6-1.1-5.6
	c0-1.4,0.2-2.8,0.5-4.2c0.4-1.3,0.9-2.6,1.5-3.8c0.6-1.2,1.4-2.2,2.3-3.2c0.9-1,1.9-1.8,3-2.5c1.1-0.7,2.3-1.2,3.6-1.6
	c1.3-0.4,2.6-0.6,4-0.6c1.1,0,2.2,0.1,3.3,0.4c1.1,0.3,2,0.6,2.9,1.1c0.9,0.5,1.7,1.1,2.3,1.8c0.7,0.7,1.2,1.5,1.6,2.4L196.6,58.8z"
	/>
<path d="M227.5,80.2c-2,0-3.8-0.4-5.5-1.1c-1.7-0.7-3.2-1.7-4.5-3c-1.3-1.3-2.3-2.7-3-4.4c-0.7-1.7-1.1-3.5-1.1-5.4
	c0-2.3,0.3-4.5,1-6.4c0.7-2,1.6-3.7,2.9-5.1c1.2-1.4,2.7-2.5,4.5-3.4c1.7-0.8,3.7-1.2,5.8-1.2c1.9,0,3.6,0.3,5.2,1
	c1.6,0.7,2.9,1.6,4.1,2.7c1.1,1.1,2,2.4,2.7,3.9c0.6,1.5,0.9,3,0.9,4.6h-21.5c0,1.9,0.2,3.7,0.7,5.4c0.5,1.7,1.2,3.1,2.1,4.3
	c0.9,1.2,2,2.1,3.2,2.8c1.2,0.7,2.6,1,4.1,1c1.2,0,2.4-0.2,3.6-0.6c1.1-0.4,2.2-0.9,3.1-1.6c0.9-0.7,1.7-1.4,2.4-2.3
	c0.7-0.8,1.1-1.7,1.4-2.6l1.7,0.7c-0.4,1.5-1.1,2.9-2,4.2s-2,2.4-3.2,3.4c-1.2,1-2.6,1.7-4,2.3C230.4,79.9,229,80.2,227.5,80.2z
	 M233.2,60c0-1.1-0.2-2.1-0.6-3c-0.4-0.9-0.9-1.8-1.6-2.4c-0.7-0.7-1.5-1.2-2.4-1.6c-0.9-0.4-1.9-0.6-2.9-0.6
	c-0.9,0-1.7,0.2-2.5,0.6c-0.8,0.4-1.5,0.9-2.1,1.6c-0.6,0.7-1.1,1.5-1.5,2.4c-0.4,0.9-0.6,2-0.7,3L233.2,60z"/>
<path d="M253.4,50.1h1.6V56c1.7-2,3.6-3.4,5.4-4.4c1.9-1,3.8-1.5,5.7-1.5c1,0,2,0.2,2.8,0.7c0.9,0.5,1.6,1.1,2.3,1.9
	c0.7,0.8,1.2,1.7,1.6,2.8c0.4,1.1,0.6,2.2,0.6,3.4v20.7h-5.7V59.8c0-1-0.1-1.8-0.3-2.5c-0.2-0.7-0.5-1.3-1-1.8
	c-0.4-0.5-0.9-0.9-1.5-1.1c-0.6-0.3-1.2-0.4-1.8-0.4c-0.6,0-1.2,0.1-1.9,0.3c-0.7,0.2-1.4,0.5-2.1,0.9c-0.7,0.4-1.4,0.8-2.1,1.3
	c-0.7,0.5-1.4,1.1-2,1.7v21.4h-5.8V51.7L253.4,50.1z"/>
<path d="M289.7,40.8h1.6v9.8h6.4v2.5h-6.4v20.3c0,0.4,0.1,0.8,0.2,1.2c0.2,0.4,0.4,0.7,0.6,1c0.3,0.3,0.6,0.5,1,0.7
	c0.4,0.2,0.8,0.2,1.2,0.2c0.6,0,1.2-0.2,1.8-0.5c0.5-0.3,1-0.7,1.4-1.2l1.4,1c-0.8,1.3-1.8,2.4-3.1,3.2c-1.3,0.8-2.8,1.2-4.7,1.2
	c-1,0-1.8-0.2-2.5-0.5c-0.7-0.3-1.3-0.8-1.8-1.4c-0.5-0.6-0.8-1.3-1-2.1c-0.2-0.8-0.3-1.7-0.3-2.7V53.1h-5V52l5-1.4v-8.2L289.7,40.8
	z"/>
</svg>
